<svg xmlns="http://www.w3.org/2000/svg" data-name="Layer 1" fill= "#F2F2F2" viewBox="0 0 64 64"><path d="M3 51V61H17V51a3 3 0 0 0-3-3H6A3 3 0 0 0 3 51zM25 38V48H39V38a3 3 0 0 0-3-3H28A3 3 0 0 0 25 38z"/><circle cx="32" cy="31" r="4"/><circle cx="10" cy="44" r="4"/><path d="M61,51a3,3,0,0,0-3-3H50a3,3,0,0,0-3,3V61H61Z"/><circle cx="54" cy="44" r="4"/><path d="M29,14c-3.573,1.077-7,4.282-7,8a11.385,11.385,0,0,0,4,8V23l6-3,6,3v7a11.418,11.418,0,0,0,4-8c0-3.718-3.436-6.915-7-8V3H2V8H29Z"/><rect width="2" height="7" x="31" y="51"/><rect width="2" height="4" x="26" y="51"/><rect width="2" height="4" x="36" y="51"/></svg>